# xmcd CD database file
#
# Track frame offsets:
#	150
#	38598
#	93484
#	108268
#	121929
#	129292
#	133745
#	145638
#	151280
#	159909
#	168773
#	176004
#	182478
#	184478
#	190584
#	207338
#	215274
#	228290
#	237661
#	246128
#	255530
#	264209
#	273518
#	288209
#
# Disc length: 3952 seconds
#
# Revision: 2
# Processed by: cddbd v1.5.2PL0 Copyright (c) Steve Scherf et al.
# Submitted via: CDex 1.51
#
DISCID=450f6e18
DTITLE=200 ans de Musique à Versailles - Vol.07 - La Chapelle Royale au temps de Louis XIV
DYEAR=2007
DGENRE=Baroque
TTITLE0=Henry Dumont - Exultat animus
TTITLE1=Henry Dumont - Magnificat
TTITLE2=Jean Baptiste Lully - Miserere - Miserere mei Deus
TTITLE3=Jean Baptiste Lully - Miserere - Amplius lava me
TTITLE4=Jean Baptiste Lully - Miserere - Tibi soli peccavi
TTITLE5=Jean Baptiste Lully - Miserere - Ecce enim veritatem dilexisti
TTITLE6=Jean Baptiste Lully - Miserere - Asperges me
TTITLE7=Jean Baptiste Lully - Miserere - Averte faciem tuam
TTITLE8=Jean Baptiste Lully - Miserere - Ne projicias me a facie tua
TTITLE9=Jean Baptiste Lully - Miserere - Docebo iniquos
TTITLE10=Jean Baptiste Lully - Miserere - Domine labia mea aperies
TTITLE11=Jean Baptiste Lully - Miserere - Sacrificium Deo spiritus contribulatus
TTITLE12=Jean Baptiste Lully - Miserere - Benigne fac Domine
TTITLE13=Jean Baptiste Lully - Miserere - Tunc acceptabis
TTITLE14=Henry Desmarest - De Profundis - De Profundis
TTITLE15=Henry Desmarest - De Profundis - Fiant aures
TTITLE16=Henry Desmarest - De Profundis - Si iniquitates
TTITLE17=Henry Desmarest - De Profundis - Quia apud te
TTITLE18=Henry Desmarest - De Profundis - Sustinuit anima mea
TTITLE19=Henry Desmarest - De Profundis - A custodia matutina
TTITLE20=Henry Desmarest - De Profundis - Quia apud Dominum
TTITLE21=Henry Desmarest - De Profundis - Et ipse redimet
TTITLE22=Henry Desmarest - De Profundis - Requiem aeternam
TTITLE23=Henry Desmarest - De Profundis - Et lux perpetua
EXTD=YEAR: 2007
EXTT0=
EXTT1=
EXTT2=
EXTT3=
EXTT4=
EXTT5=
EXTT6=
EXTT7=
EXTT8=
EXTT9=
EXTT10=
EXTT11=
EXTT12=
EXTT13=
EXTT14=
EXTT15=
EXTT16=
EXTT17=
EXTT18=
EXTT19=
EXTT20=
EXTT21=
EXTT22=
EXTT23=
PLAYORDER=
